<?xml version="1.0" encoding="UTF-8" standalone="no"?><!DOCTYPE svg PUBLIC "-//W3C//DTD SVG 1.1//EN" "http://www.w3.org/Graphics/SVG/1.1/DTD/svg11.dtd"><svg width="100%" height="100%" viewBox="0 0 62 62" version="1.1" xmlns="http://www.w3.org/2000/svg" xmlns:xlink="http://www.w3.org/1999/xlink" xml:space="preserve" xmlns:serif="http://www.serif.com/" style="fill-rule:evenodd;clip-rule:evenodd;stroke-linejoin:round;stroke-miterlimit:2;"><path d="M46.295,54.669c-11.154,7.172 -26.166,5.899 -35.895,-3.83c-11.219,-11.219 -11.193,-29.463 0.059,-40.715c11.252,-11.252 29.495,-11.278 40.715,-0.059l-40.774,40.774c9.729,9.729 24.741,11.002 35.895,3.83Zm1.773,-1.237l-0.145,0.109c-0.484,0.361 -0.977,0.704 -1.478,1.031c0.551,-0.359 1.093,-0.739 1.623,-1.14Zm1.062,-0.841c-0.331,0.275 -0.666,0.541 -1.006,0.798c0.34,-0.257 0.675,-0.523 1.006,-0.798Zm0.854,-0.738c-0.073,0.065 -0.145,0.129 -0.219,0.194l-0.138,0.121c0.119,-0.104 0.239,-0.209 0.357,-0.315Zm0.999,-0.941c-0.224,0.22 -0.45,0.437 -0.679,0.649c0.228,-0.211 0.455,-0.428 0.679,-0.649Z" style="fill:#782c9d;"/><path d="M51.126,10.018c11.246,11.245 11.241,29.51 -0.011,40.762c-11.252,11.252 -29.517,11.257 -40.762,0.012l40.773,-40.774Z" style="fill:#8f43b4;"/><path d="M31.936,46.673c-1.677,1.615 -3.962,2.61 -6.478,2.61c-5.144,0 -9.321,-4.159 -9.321,-9.281c0,-5.123 4.177,-9.282 9.321,-9.282c2.516,-0 4.801,0.995 6.478,2.61l-0.826,0.851c-1.463,-1.409 -3.456,-2.277 -5.652,-2.277c-4.488,-0 -8.132,3.628 -8.132,8.098c0,4.469 3.644,8.097 8.132,8.097c2.196,0 4.189,-0.868 5.652,-2.277l0.826,0.851Z" style="fill:#fff;"/><ellipse cx="25.458" cy="40.002" rx="3.453" ry="3.438" style="fill:#fff;"/><g transform="matrix(0.882274,0,0,1,0.135651,0)"><text x="9.895px" y="27.499px" style="font-family:'ArialMT', 'Arial', sans-serif;font-size:12px;fill:#fff;">ASP<tspan x="32.36px 35.694px " y="27.499px 27.499px ">.N</tspan>ET</text></g><g transform="matrix(0.882274,0,0,1,2.21396,4.44089e-16)"><text x="32.159px" y="44.934px" style="font-family:'ArialMT', 'Arial', sans-serif;font-size:18.328px;fill:#fff;">re</text></g></svg>